<svg xmlns="http://www.w3.org/2000/svg" viewBox="210 210 600 600" fill="currentColor">
  <!-- eToro logo with horns and checkmark (no 'e', no ears/wings) -->
  
  <!-- Left wing/tail (this is the HORN pointing up-left) -->
  <path d="M 342.459,414.117 C 307.544,387.772 287.458,362.752 281.023,337.590 C 277.448,323.611 278.834,310.006 285.372,294.883 C 289.121,286.211 299.007,269.836 300.244,270.248 C 300.667,270.389 301.157,276.803 301.335,284.502 C 301.588,295.491 302.118,299.897 303.802,305 C 310.962,326.700 330.720,344.947 365.878,362.329 C 373.920,366.305 386.125,371.757 393,374.445 C 399.875,377.133 405.853,379.633 406.285,380.001 C 406.717,380.369 404.467,382.392 401.285,384.497 C 389.071,392.576 379.070,400.804 367.628,412.188 C 361.098,418.685 355.698,423.991 355.628,423.979 C 355.558,423.967 349.632,419.529 342.459,414.117"/>
  
  <!-- Right wing/tail (this is the HORN pointing up-right) -->
  <path d="M 655.435,411.100 C 644.306,400.343 633.927,392.133 620.529,383.490 L 611.670,377.775 L 623.585,372.882 C 660.406,357.761 686.097,341.372 697.737,325.577 C 708.228,311.342 711.393,301.269 711.340,282.285 C 711.320,275.017 711.688,269.307 712.157,269.597 C 716.184,272.086 728.873,296.380 731.693,307 C 733.936,315.446 733.899,330.329 731.612,339 C 726.217,359.454 708.467,383.356 680.394,407.969 C 673.852,413.705 667.825,418.944 667,419.613 C 665.748,420.627 663.833,419.217 655.435,411.100"/>
  
  <!-- Main circular ring (closed, no gaps) -->
  <circle cx="510" cy="560" r="200" fill="none" stroke="currentColor" stroke-width="40"/>
  
  <!-- Checkmark inside the circle -->
  <path d="M 440,560 L 480,600 L 580,500" fill="none" stroke="currentColor" stroke-width="40" stroke-linecap="round" stroke-linejoin="round"/>
</svg>
