<?xml version="1.0" encoding="UTF-8"?>
<svg width="24" height="24" viewBox="0 0 1024 1024" xmlns="http://www.w3.org/2000/svg" fill="currentColor">
  <!-- eToro logo - monochrome version for VS Code activity bar -->
  
  <!-- Main "e" shape with checkmark box -->
  <path d="M 733,799.919 C 739.043,797.184 742.776,793.509 745.617,787.500 L 747.980,782.500 L 747.980,732 L 747.980,681.500 L 745.619,676.429 C 744.320,673.640 741.512,669.914 739.379,668.150 C 732.127,662.153 730.597,662 678,662 C 623.474,662 622.877,662.070 615.541,669.406 C 607.848,677.099 607.890,676.730 608.215,734.115 L 608.500,784.500 L 611.272,789.216 C 614.403,794.543 619.217,798.599 624.748,800.573 C 627.689,801.623 639.308,801.917 678.500,801.934 C 726.688,801.955 728.663,801.882 733,799.919"/>
  
  <!-- Inner checkmark box frame -->
  <path d="M 729.545,783.545 L 732,781.091 L 732,732.627 C 732,705.972 731.721,683.435 731.379,682.545 C 729.701,678.173 727.654,678 677.473,678 L 629.846,678 L 626.923,680.923 L 624,683.846 L 624,731.473 C 624,771.551 624.234,779.552 625.479,781.959 C 626.292,783.532 627.530,785.050 628.229,785.331 C 628.928,785.612 651.457,785.878 678.295,785.921 L 727.091,786 L 729.545,783.545" fill-rule="evenodd" fill="none" stroke="currentColor" stroke-width="8"/>
  
  <!-- Checkmark inside box -->
  <path d="M 693.750,738.278 C 706.538,725.200 717.277,713.479 717.614,712.231 C 719.037,706.962 713.151,700.865 708.169,702.446 C 707.081,702.791 697.552,712.055 686.994,723.032 L 667.797,742.990 L 659.251,734.995 C 649.682,726.042 646.814,725.096 642.455,729.455 C 638.075,733.835 639.027,736.113 650.126,747.820 C 663.241,761.653 663.657,761.995 667.361,762.028 C 670.153,762.053 673.072,759.425 693.750,738.278"/>
  
  <!-- Main eToro "e" letter with horns -->
  <path d="M 543.500,758.499 C 557.067,756.383 571.352,752.577 584.250,747.641 L 595,743.527 L 595,734.750 L 595,725.973 L 591.250,727.627 C 546.374,747.416 499.450,750.282 454.500,735.980 C 434.438,729.597 409.519,715.931 392.500,701.980 C 338.306,657.555 312.996,585.778 327.443,517.486 C 339.246,461.695 378.579,411.357 429.338,387.083 C 492.906,356.684 565.344,362.935 622.278,403.734 C 632.299,410.915 650.074,427.815 658.201,437.888 C 693.603,481.769 707.612,537.504 696.999,592.251 C 693.769,608.914 690.290,619.068 678.312,646.791 C 677.875,647.802 679.668,648.019 686.575,647.791 L 695.395,647.500 L 699.116,638.875 C 712.555,607.726 718.774,571.990 716.062,541.500 C 714.025,518.593 708.496,495.681 700.495,476.987 L 697.137,469.142 L 707.818,469.236 C 713.693,469.287 721.200,468.768 724.500,468.082 C 737.864,465.304 753.380,455.345 764.450,442.440 C 772.981,432.495 771.530,429.114 754.265,418.708 C 739.959,410.085 722.860,404 712.935,404 C 711.321,404 710,403.516 710,402.925 C 710,402.334 713.255,398.263 717.233,393.879 C 746.532,361.589 755.965,330.105 745.805,298.524 C 741.263,284.406 730.888,266.439 717.787,250 C 706.602,235.966 694.507,222.926 692.110,222.319 C 688.564,221.420 684.683,223.174 683.152,226.368 C 681.911,228.957 682.132,230.026 685.832,239.345 C 693.903,259.671 697.235,278.329 695.175,291.668 C 690.933,319.139 668.086,337.852 611.212,360.445 L 591.925,368.107 L 582.534,364.589 C 571.552,360.475 557.436,356.771 543.457,354.335 C 529.541,351.910 494.522,351.905 480.500,354.327 C 466.425,356.758 449.602,361.377 437.550,366.120 L 427.256,370.171 L 413.878,365.442 C 367.103,348.909 335.450,329.541 324.026,310.464 C 314.456,294.484 314.883,270.628 325.214,244 C 330.354,230.753 330.910,226.910 328.096,224.096 C 326.784,222.784 324.718,222 322.575,222 C 319.552,222 318.247,222.993 311.455,230.454 C 287.697,256.552 272.665,279.960 266.328,300.723 C 262.715,312.561 262.504,331.215 265.843,343.500 C 270.368,360.147 280.942,377.567 297.515,395.675 C 301.758,400.311 305.066,404.229 304.865,404.382 C 304.664,404.535 301.852,405.233 298.615,405.932 C 287.898,408.248 275.236,414.425 262.190,423.701 C 251.513,431.293 251.889,434.807 264.751,447.554 C 280.821,463.481 300.940,471.525 319.686,469.517 C 323.159,469.145 326,469.141 326,469.508 C 326,469.875 324.036,475.199 321.635,481.338 C 307.615,517.189 304.016,555.028 310.963,593.566 C 324.132,666.622 376.867,726.794 448.850,750.898 C 459.392,754.428 478.418,758.498 491.051,759.924 C 502.404,761.206 531.154,760.425 543.500,758.499"/>
  
  <!-- Inner "e" opening -->
  <path d="M 532.024,646.581 C 548.459,643.100 565.037,634.022 577.250,621.815 C 583.312,615.756 584,614.665 584,611.107 C 584,608.018 583.419,606.689 581.365,605.073 C 577.068,601.693 574.459,602.404 567.663,608.810 C 555.757,620.033 548.582,624.481 534.842,629.154 C 526.420,632.018 524.318,632.334 513.500,632.357 C 495.429,632.395 482.078,628.022 468.191,617.515 C 453.132,606.122 441.192,584.388 439.860,565.944 L 439.539,561.500 L 518.350,561 C 608.546,560.428 600,561.499 600,550.767 C 600,537.540 594.571,520.371 586.391,507.725 C 574.181,488.851 554.524,474.733 533,469.380 C 522.662,466.809 500.396,466.817 490.500,469.396 C 457.919,477.887 432.676,504.227 425.342,537.385 C 423.197,547.083 423.246,567.134 425.441,577.500 C 427.313,586.341 432.057,598.158 437.169,606.708 C 444.079,618.267 460.450,633.159 473.500,639.759 C 479.309,642.697 493.485,646.933 501,647.975 C 508.962,649.079 523.262,648.437 532.024,646.581" fill-rule="evenodd" fill="none" stroke="currentColor" stroke-width="8"/>
  
  <!-- Inner "e" bar/bowl -->
  <path d="M 583,543.443 C 583,536.436 574.586,517.449 567.958,509.500 C 554.298,493.117 532.985,483 512.130,483 C 477.284,483 448.945,506.475 440.603,542.250 L 439.962,545 L 511.481,545 C 575.554,545 583,544.838 583,543.443" fill-rule="evenodd" fill="none" stroke="currentColor" stroke-width="8"/>
</svg>
