<svg xmlns="http://www.w3.org/2000/svg" viewBox="210 230 600 520" fill="currentColor">
  <!-- eToro "e" with horns and checkmark - tighter crop for larger appearance -->
  
  <!-- Main "e" with horns -->
  <path d="M 459.354,741.909 C 392.839,735.973 332.090,694.809 301.581,635 C 267.677,568.536 274.858,485.762 319.614,427.147 C 321.476,424.708 323,422.357 323,421.923 C 323,421.489 319.062,418.777 314.250,415.896 C 282.747,397.038 257.485,375.660 241.699,354.500 C 229.809,338.563 220.762,318.098 218.047,301 C 216.543,291.531 216.771,274.576 218.537,264.447 C 220.394,253.801 225.953,236.553 227.144,237.744 C 227.614,238.214 229.062,242.176 230.361,246.549 C 235.268,263.062 240.897,273.846 250.683,285.474 C 269.022,307.266 300.577,325.037 341.333,336.525 C 374.693,345.928 427.106,352.779 445.169,350.098 C 458.982,348.047 485.985,347.560 499.500,349.117 C 515.610,350.973 529.833,350.688 552,348.063 C 613.627,340.764 657.312,325.882 688.421,301.590 C 706.687,287.327 717.741,271.216 725.019,248.250 C 726.806,242.613 728.595,238 728.995,238 C 730.050,238 733.392,247.159 736.117,257.518 C 738.170,265.321 738.479,268.797 738.476,284 C 738.473,299.986 738.236,302.365 735.726,311.500 C 732.211,324.296 722.950,342.891 714.312,354.500 C 699.938,373.816 676.409,394.295 649.500,410.908 C 642.350,415.322 635.479,419.651 634.232,420.527 C 634.232,420.527 631.965,422.120 631.965,422.120 C 631.965,422.120 635.368,426.310 635.368,426.310 C 639.922,431.917 648.800,445.764 653.765,455 C 660.949,468.365 669.531,492.671 671.455,505.104 C 671.455,505.104 672.136,509.500 672.136,509.500 C 672.136,509.500 662.818,499.792 662.818,499.792 C 653.515,490.099 645.805,485.035 640.315,485.010 C 637.165,484.996 633,483.238 633,481.922 C 633,479.198 624.291,462.601 617.550,452.478 C 593.336,416.118 555.218,390.485 511,380.826 C 501.727,378.800 497.813,378.535 477.500,378.554 C 457.450,378.573 453.218,378.861 444.500,380.798 C 376.756,395.854 326.515,446.148 312.937,512.500 C 310.280,525.484 309.242,553.396 310.937,566.284 C 318.245,621.853 352.536,670.323 401.958,694.944 C 417.162,702.518 430.998,707.195 448.500,710.678 C 462.481,713.460 495.879,713.173 509.880,710.150 C 556.952,699.987 596.392,672.728 620.780,633.500 C 625.257,626.298 633.535,609.798 635.328,604.501 C 635.677,603.471 657.952,625.879 657.983,627.290 C 658.045,630.134 645.751,650.497 636.212,663.350 C 627.268,675.401 609.762,693.154 598.220,701.877 C 557.777,732.443 509.438,746.378 459.354,741.909"/>
  
  <!-- Checkmark -->
  <path d="M 675.469,602.601 C 673.601,601.787 667.082,594.804 658.471,584.391 C 650.789,575.101 638.314,560.078 630.749,551.007 C 623.184,541.936 616.501,533.019 615.898,531.192 C 614.378,526.587 615.553,521.579 619.099,517.540 C 624.086,511.860 631.723,510.623 637.686,514.530 C 639.671,515.830 654.156,532.845 674.482,557.750 C 677.736,561.737 680.674,565 681.011,565 C 681.630,565 694.799,548.109 750.722,475.586 C 767.650,453.634 782.771,434.734 784.324,433.586 C 787.776,431.036 794.084,430.951 798.794,433.391 C 805.341,436.782 807.894,445.435 804.363,452.264 C 803.463,454.005 792.753,468.271 780.564,483.965 C 768.375,499.659 743.153,532.443 724.517,556.819 C 704.443,583.075 689.505,601.721 687.866,602.569 C 684.452,604.334 679.477,604.347 675.469,602.601"/>
  
  <!-- Inner "e" with bar and opening -->
  <path d="M 464.269,649.005 C 440.904,645.707 422.553,636.600 405.903,620.043 C 390.841,605.065 382.147,588.973 377.783,568 C 374.920,554.242 375.681,529.537 379.376,516.278 C 384.355,498.412 392.732,484.112 405.928,470.951 C 441.421,435.552 499.225,432.060 538.054,462.969 C 560.856,481.120 573.704,506.696 575.571,537.653 C 576.115,546.676 575.969,547.870 573.832,551.926 C 569.299,560.527 575.051,560 485.766,560 C 485.766,560 407,560 407,560 C 407,560 407,562.247 407,562.247 C 407,566.820 412.305,580.210 416.903,587.245 C 431.156,609.052 455.316,621.195 481.482,619.704 C 498.686,618.724 512.653,612.984 525.855,601.470 C 533.576,594.736 537.908,593.749 544.776,597.157 C 553.269,601.372 556.498,610.391 552.098,617.607 C 549.245,622.286 533.780,633.486 522.477,639.058 C 509.461,645.475 496.089,648.874 481.607,649.446 C 475.498,649.687 467.696,649.489 464.269,649.005 M 544,527.682 C 544,523.623 540.934,514.748 536.721,506.614 C 529.309,492.304 516.042,481.159 499.490,475.336 C 492.096,472.735 490.381,472.525 476.500,472.525 C 462.619,472.525 460.904,472.735 453.510,475.336 C 432.542,482.713 415.734,499.455 409.506,519.171 C 408.128,523.534 407,527.755 407,528.552 C 407,529.802 416.363,530 475.500,530 C 475.500,530 544,530 544,530 C 544,530 544,527.682 544,527.682" fill-rule="evenodd"/>
</svg>
