<?xml version="1.0" encoding="UTF-8"?>
<svg width="1024" height="1024" viewBox="0 0 1024 1024" xmlns="http://www.w3.org/2000/svg">
  <path id="11" d="M 0,512 C 0,512 0,0 0,0 C 0,0 512,0 512,0 C 512,0 1024,0 1024,0 C 1024,0 1024,512 1024,512 C 1024,512 1024,1024 1024,1024 C 1024,1024 512,1024 512,1024 C 512,1024 0,1024 0,1024 C 0,1024 0,512 0,512M 733,799.919 C 739.043,797.184 742.776,793.509 745.617,787.500 C 745.617,787.500 747.980,782.500 747.980,782.500 C 747.980,782.500 747.980,732 747.980,732 C 747.980,732 747.980,681.500 747.980,681.500 C 747.980,681.500 745.619,676.429 745.619,676.429 C 744.320,673.640 741.512,669.914 739.379,668.150 C 732.127,662.153 730.597,662 678,662 C 623.474,662 622.877,662.070 615.541,669.406 C 607.848,677.099 607.890,676.730 608.215,734.115 C 608.215,734.115 608.500,784.500 608.500,784.500 C 608.500,784.500 611.272,789.216 611.272,789.216 C 614.403,794.543 619.217,798.599 624.748,800.573 C 627.689,801.623 639.308,801.917 678.500,801.934 C 726.688,801.955 728.663,801.882 733,799.919M 543.500,758.499 C 557.067,756.383 571.352,752.577 584.250,747.641 C 584.250,747.641 595,743.527 595,743.527 C 595,743.527 595,734.750 595,734.750 C 595,734.750 595,725.973 595,725.973 C 595,725.973 591.250,727.627 591.250,727.627 C 546.374,747.416 499.450,750.282 454.500,735.980 C 434.438,729.597 409.519,715.931 392.500,701.980 C 338.306,657.555 312.996,585.778 327.443,517.486 C 339.246,461.695 378.579,411.357 429.338,387.083 C 492.906,356.684 565.344,362.935 622.278,403.734 C 632.299,410.915 650.074,427.815 658.201,437.888 C 693.603,481.769 707.612,537.504 696.999,592.251 C 693.769,608.914 690.290,619.068 678.312,646.791 C 677.875,647.802 679.668,648.019 686.575,647.791 C 686.575,647.791 695.395,647.500 695.395,647.500 C 695.395,647.500 699.116,638.875 699.116,638.875 C 712.555,607.726 718.774,571.990 716.062,541.500 C 714.025,518.593 708.496,495.681 700.495,476.987 C 700.495,476.987 697.137,469.142 697.137,469.142 C 697.137,469.142 707.818,469.236 707.818,469.236 C 713.693,469.287 721.200,468.768 724.500,468.082 C 737.864,465.304 753.380,455.345 764.450,442.440 C 772.981,432.495 771.530,429.114 754.265,418.708 C 739.959,410.085 722.860,404 712.935,404 C 711.321,404 710,403.516 710,402.925 C 710,402.334 713.255,398.263 717.233,393.879 C 746.532,361.589 755.965,330.105 745.805,298.524 C 741.263,284.406 730.888,266.439 717.787,250 C 706.602,235.966 694.507,222.926 692.110,222.319 C 688.564,221.420 684.683,223.174 683.152,226.368 C 681.911,228.957 682.132,230.026 685.832,239.345 C 693.903,259.671 697.235,278.329 695.175,291.668 C 690.933,319.139 668.086,337.852 611.212,360.445 C 611.212,360.445 591.925,368.107 591.925,368.107 C 591.925,368.107 582.534,364.589 582.534,364.589 C 571.552,360.475 557.436,356.771 543.457,354.335 C 529.541,351.910 494.522,351.905 480.500,354.327 C 466.425,356.758 449.602,361.377 437.550,366.120 C 437.550,366.120 427.256,370.171 427.256,370.171 C 427.256,370.171 413.878,365.442 413.878,365.442 C 367.103,348.909 335.450,329.541 324.026,310.464 C 314.456,294.484 314.883,270.628 325.214,244 C 330.354,230.753 330.910,226.910 328.096,224.096 C 326.784,222.784 324.718,222 322.575,222 C 319.552,222 318.247,222.993 311.455,230.454 C 287.697,256.552 272.665,279.960 266.328,300.723 C 262.715,312.561 262.504,331.215 265.843,343.500 C 270.368,360.147 280.942,377.567 297.515,395.675 C 301.758,400.311 305.066,404.229 304.865,404.382 C 304.664,404.535 301.852,405.233 298.615,405.932 C 287.898,408.248 275.236,414.425 262.190,423.701 C 251.513,431.293 251.889,434.807 264.751,447.554 C 280.821,463.481 300.940,471.525 319.686,469.517 C 323.159,469.145 326,469.141 326,469.508 C 326,469.875 324.036,475.199 321.635,481.338 C 307.615,517.189 304.016,555.028 310.963,593.566 C 324.132,666.622 376.867,726.794 448.850,750.898 C 459.392,754.428 478.418,758.498 491.051,759.924 C 502.404,761.206 531.154,760.425 543.500,758.499M 532.024,646.581 C 548.459,643.100 565.037,634.022 577.250,621.815 C 583.312,615.756 584,614.665 584,611.107 C 584,608.018 583.419,606.689 581.365,605.073 C 577.068,601.693 574.459,602.404 567.663,608.810 C 555.757,620.033 548.582,624.481 534.842,629.154 C 526.420,632.018 524.318,632.334 513.500,632.357 C 495.429,632.395 482.078,628.022 468.191,617.515 C 453.132,606.122 441.192,584.388 439.860,565.944 C 439.860,565.944 439.539,561.500 439.539,561.500 C 439.539,561.500 518.350,561 518.350,561 C 608.546,560.428 600,561.499 600,550.767 C 600,537.540 594.571,520.371 586.391,507.725 C 574.181,488.851 554.524,474.733 533,469.380 C 522.662,466.809 500.396,466.817 490.500,469.396 C 457.919,477.887 432.676,504.227 425.342,537.385 C 423.197,547.083 423.246,567.134 425.441,577.500 C 427.313,586.341 432.057,598.158 437.169,606.708 C 444.079,618.267 460.450,633.159 473.500,639.759 C 479.309,642.697 493.485,646.933 501,647.975 C 508.962,649.079 523.262,648.437 532.024,646.581" stroke="#FFFFFF" fill="#FFFFFF" stroke-width="1" />
  <path id="10" d="M 624.748,800.573 C 619.217,798.599 614.403,794.543 611.272,789.216 C 611.272,789.216 608.500,784.500 608.500,784.500 C 608.500,784.500 608.215,734.115 608.215,734.115 C 607.890,676.730 607.848,677.099 615.541,669.406 C 622.877,662.070 623.474,662 678,662 C 730.597,662 732.127,662.153 739.379,668.150 C 741.512,669.914 744.320,673.640 745.619,676.429 C 745.619,676.429 747.980,681.500 747.980,681.500 C 747.980,681.500 747.980,732 747.980,732 C 747.980,732 747.980,782.500 747.980,782.500 C 747.980,782.500 745.617,787.500 745.617,787.500 C 742.776,793.509 739.043,797.184 733,799.919 C 728.663,801.882 726.688,801.955 678.500,801.934 C 639.308,801.917 627.689,801.623 624.748,800.573M 729.545,783.545 C 729.545,783.545 732,781.091 732,781.091 C 732,781.091 732,732.627 732,732.627 C 732,705.972 731.721,683.435 731.379,682.545 C 729.701,678.173 727.654,678 677.473,678 C 677.473,678 629.846,678 629.846,678 C 629.846,678 626.923,680.923 626.923,680.923 C 626.923,680.923 624,683.846 624,683.846 C 624,683.846 624,731.473 624,731.473 C 624,771.551 624.234,779.552 625.479,781.959 C 626.292,783.532 627.530,785.050 628.229,785.331 C 628.928,785.612 651.457,785.878 678.295,785.921 C 678.295,785.921 727.091,786 727.091,786 C 727.091,786 729.545,783.545 729.545,783.545" stroke="#000000" fill="#000000" stroke-width="1" />
  <path id="10" d="M 491.051,759.924 C 400.115,749.656 326.909,682.032 310.963,593.566 C 304.016,555.028 307.615,517.189 321.635,481.338 C 324.036,475.199 326,469.875 326,469.508 C 326,469.141 323.159,469.145 319.686,469.517 C 300.940,471.525 280.821,463.481 264.751,447.554 C 251.889,434.807 251.513,431.293 262.190,423.701 C 275.236,414.425 287.898,408.248 298.615,405.932 C 301.852,405.233 304.664,404.535 304.865,404.382 C 305.066,404.229 301.758,400.311 297.515,395.675 C 280.942,377.567 270.368,360.147 265.843,343.500 C 262.504,331.215 262.715,312.561 266.328,300.723 C 272.665,279.960 287.697,256.552 311.455,230.454 C 318.247,222.993 319.552,222 322.575,222 C 324.718,222 326.784,222.784 328.096,224.096 C 330.910,226.910 330.354,230.753 325.214,244 C 314.883,270.628 314.456,294.484 324.026,310.464 C 335.450,329.541 367.103,348.909 413.878,365.442 C 413.878,365.442 427.256,370.171 427.256,370.171 C 427.256,370.171 437.550,366.120 437.550,366.120 C 449.602,361.377 466.425,356.758 480.500,354.327 C 494.522,351.905 529.541,351.910 543.457,354.335 C 557.436,356.771 571.552,360.475 582.534,364.589 C 582.534,364.589 591.925,368.107 591.925,368.107 C 591.925,368.107 611.212,360.445 611.212,360.445 C 668.086,337.852 690.933,319.139 695.175,291.668 C 697.235,278.329 693.903,259.671 685.832,239.345 C 682.132,230.026 681.911,228.957 683.152,226.368 C 684.683,223.174 688.564,221.420 692.110,222.319 C 694.507,222.926 706.602,235.966 717.787,250 C 730.888,266.439 741.263,284.406 745.805,298.524 C 755.965,330.105 746.532,361.589 717.233,393.879 C 713.255,398.263 710,402.334 710,402.925 C 710,403.516 711.321,404 712.935,404 C 722.860,404 739.959,410.085 754.265,418.708 C 771.530,429.114 772.981,432.495 764.450,442.440 C 753.380,455.345 737.864,465.304 724.500,468.082 C 721.200,468.768 713.693,469.287 707.818,469.236 C 707.818,469.236 697.137,469.142 697.137,469.142 C 697.137,469.142 700.495,476.987 700.495,476.987 C 708.496,495.681 714.025,518.593 716.062,541.500 C 718.774,571.990 712.555,607.726 699.116,638.875 C 699.116,638.875 695.395,647.500 695.395,647.500 C 695.395,647.500 686.575,647.791 686.575,647.791 C 679.668,648.019 677.875,647.802 678.312,646.791 C 690.290,619.068 693.769,608.914 696.999,592.251 C 707.612,537.504 693.603,481.769 658.201,437.888 C 650.074,427.815 632.299,410.915 622.278,403.734 C 571.369,367.253 507.538,358.183 448.500,379.043 C 387.863,400.467 340.816,454.272 327.443,517.486 C 314.675,577.841 332.988,642.082 375.444,685.871 C 393.104,704.085 410.267,716.504 432.216,726.951 C 459.915,740.135 488.282,745.926 519,744.666 C 544.736,743.610 566.810,738.405 591.250,727.627 C 591.250,727.627 595,725.973 595,725.973 C 595,725.973 595,734.750 595,734.750 C 595,734.750 595,743.527 595,743.527 C 595,743.527 584.250,747.641 584.250,747.641 C 571.352,752.577 557.067,756.383 543.500,758.499 C 531.154,760.425 502.404,761.206 491.051,759.924M 324,452.947 C 336.431,450.961 337.108,450.598 341.834,443.383 C 344.218,439.744 345.793,436.404 345.334,435.959 C 344.875,435.514 340.011,431.741 334.525,427.575 C 334.525,427.575 324.551,420 324.551,420 C 324.551,420 315.381,420 315.381,420 C 304.491,420 296.121,422.247 285,428.156 C 273.535,434.248 273.520,434.282 279.836,439.990 C 292.383,451.330 307.096,455.647 324,452.947M 722.401,451.906 C 729.012,450.624 737.695,445.848 744.164,439.935 C 744.164,439.935 749.500,435.057 749.500,435.057 C 749.500,435.057 747,433.050 747,433.050 C 742.770,429.654 731.850,424.305 724.645,422.099 C 709.497,417.462 690.461,420.565 680.566,429.286 C 680.566,429.286 675.633,433.634 675.633,433.634 C 675.633,433.634 681.279,442.208 681.279,442.208 C 681.279,442.208 686.925,450.782 686.925,450.782 C 686.925,450.782 695.213,451.901 695.213,451.901 C 699.771,452.517 704.625,453.167 706,453.346 C 709.121,453.752 715.988,453.149 722.401,451.906M 367.628,412.188 C 379.070,400.804 389.071,392.576 401.285,384.497 C 404.467,382.392 406.717,380.369 406.285,380.001 C 405.853,379.633 399.875,377.133 393,374.445 C 342.561,354.726 312.483,331.309 303.802,305 C 302.118,299.897 301.588,295.491 301.335,284.502 C 301.157,276.803 300.667,270.389 300.244,270.248 C 299.007,269.836 289.121,286.211 285.372,294.883 C 278.834,310.006 277.448,323.611 281.023,337.590 C 287.458,362.752 307.544,387.772 342.459,414.117 C 349.632,419.529 355.558,423.967 355.628,423.979 C 355.698,423.991 361.098,418.685 367.628,412.188M 680.394,407.969 C 708.467,383.356 726.217,359.454 731.612,339 C 733.899,330.329 733.936,315.446 731.693,307 C 728.873,296.380 716.184,272.086 712.157,269.597 C 711.688,269.307 711.320,275.017 711.340,282.285 C 711.393,301.269 708.228,311.342 697.737,325.577 C 686.097,341.372 660.406,357.761 623.585,372.882 C 623.585,372.882 611.670,377.775 611.670,377.775 C 611.670,377.775 620.529,383.490 620.529,383.490 C 633.927,392.133 644.306,400.343 655.435,411.100 C 663.833,419.217 665.748,420.627 667,419.613 C 667.825,418.944 673.852,413.705 680.394,407.969" stroke="#000000" fill="#000000" stroke-width="1" />
  <path id="11" d="M 706,453.346 C 704.625,453.167 699.771,452.517 695.213,451.901 C 695.213,451.901 686.925,450.782 686.925,450.782 C 686.925,450.782 681.279,442.208 681.279,442.208 C 681.279,442.208 675.633,433.634 675.633,433.634 C 675.633,433.634 680.566,429.286 680.566,429.286 C 690.461,420.565 709.497,417.462 724.645,422.099 C 731.850,424.305 742.770,429.654 747,433.050 C 747,433.050 749.500,435.057 749.500,435.057 C 749.500,435.057 744.164,439.935 744.164,439.935 C 737.695,445.848 729.012,450.624 722.401,451.906 C 715.988,453.149 709.121,453.752 706,453.346" stroke="#FFFFFF" fill="#FFFFFF" stroke-width="1" />
  <path id="11" d="M 655.435,411.100 C 644.306,400.343 633.927,392.133 620.529,383.490 C 620.529,383.490 611.670,377.775 611.670,377.775 C 611.670,377.775 623.585,372.882 623.585,372.882 C 660.406,357.761 686.097,341.372 697.737,325.577 C 708.228,311.342 711.393,301.269 711.340,282.285 C 711.320,275.017 711.688,269.307 712.157,269.597 C 716.184,272.086 728.873,296.380 731.693,307 C 733.936,315.446 733.899,330.329 731.612,339 C 726.217,359.454 708.467,383.356 680.394,407.969 C 673.852,413.705 667.825,418.944 667,419.613 C 665.748,420.627 663.833,419.217 655.435,411.100" stroke="#FFFFFF" fill="#FFFFFF" stroke-width="1" />
  <path id="10" d="M 501,647.975 C 493.485,646.933 479.309,642.697 473.500,639.759 C 460.450,633.159 444.079,618.267 437.169,606.708 C 427.714,590.893 423.742,576.168 423.758,557 C 423.779,531.869 431.397,512.217 447.900,494.723 C 459.289,482.650 474.622,473.534 490.500,469.396 C 500.396,466.817 522.662,466.809 533,469.380 C 565.731,477.521 591.705,504.450 598.420,537.208 C 600.400,546.865 600.468,555.977 598.581,558.559 C 597.202,560.445 594.907,560.514 518.350,561 C 518.350,561 439.539,561.500 439.539,561.500 C 439.539,561.500 439.860,565.944 439.860,565.944 C 441.192,584.388 453.132,606.122 468.191,617.515 C 482.078,628.022 495.429,632.395 513.500,632.357 C 524.318,632.334 526.420,632.018 534.842,629.154 C 548.582,624.481 555.757,620.033 567.663,608.810 C 574.459,602.404 577.068,601.693 581.365,605.073 C 583.419,606.689 584,608.018 584,611.107 C 584,614.665 583.312,615.756 577.250,621.815 C 565.037,634.022 548.459,643.100 532.024,646.581 C 523.262,648.437 508.962,649.079 501,647.975M 583,543.443 C 583,536.436 574.586,517.449 567.958,509.500 C 554.298,493.117 532.985,483 512.130,483 C 477.284,483 448.945,506.475 440.603,542.250 C 440.603,542.250 439.962,545 439.962,545 C 439.962,545 511.481,545 511.481,545 C 575.554,545 583,544.838 583,543.443" stroke="#000000" fill="#000000" stroke-width="1" />
  <path id="11" d="M 342.459,414.117 C 307.544,387.772 287.458,362.752 281.023,337.590 C 277.448,323.611 278.834,310.006 285.372,294.883 C 289.121,286.211 299.007,269.836 300.244,270.248 C 300.667,270.389 301.157,276.803 301.335,284.502 C 301.588,295.491 302.118,299.897 303.802,305 C 310.962,326.700 330.720,344.947 365.878,362.329 C 373.920,366.305 386.125,371.757 393,374.445 C 399.875,377.133 405.853,379.633 406.285,380.001 C 406.717,380.369 404.467,382.392 401.285,384.497 C 389.071,392.576 379.070,400.804 367.628,412.188 C 361.098,418.685 355.698,423.991 355.628,423.979 C 355.558,423.967 349.632,419.529 342.459,414.117" stroke="#FFFFFF" fill="#FFFFFF" stroke-width="1" />
  <path id="11" d="M 303.263,452.486 C 295.309,450.758 286.625,446.126 279.836,439.990 C 273.520,434.282 273.535,434.248 285,428.156 C 296.121,422.247 304.491,420 315.381,420 C 315.381,420 324.551,420 324.551,420 C 324.551,420 334.525,427.575 334.525,427.575 C 340.011,431.741 344.875,435.514 345.334,435.959 C 345.793,436.404 344.218,439.744 341.834,443.383 C 337.108,450.598 336.431,450.961 324,452.947 C 315.691,454.274 311.014,454.170 303.263,452.486" stroke="#FFFFFF" fill="#FFFFFF" stroke-width="1" />
  <path id="11" d="M 628.229,785.331 C 627.530,785.050 626.292,783.532 625.479,781.959 C 624.234,779.552 624,771.551 624,731.473 C 624,731.473 624,683.846 624,683.846 C 624,683.846 626.923,680.923 626.923,680.923 C 626.923,680.923 629.846,678 629.846,678 C 629.846,678 677.473,678 677.473,678 C 727.654,678 729.701,678.173 731.379,682.545 C 731.721,683.435 732,705.972 732,732.627 C 732,732.627 732,781.091 727.091,786 C 727.091,786 678.295,785.921 678.295,785.921 C 651.457,785.878 628.928,785.612 628.229,785.331M 693.750,738.278 C 706.538,725.200 717.277,713.479 717.614,712.231 C 719.037,706.962 713.151,700.865 708.169,702.446 C 707.081,702.791 697.552,712.055 686.994,723.032 C 686.994,723.032 667.797,742.990 667.797,742.990 C 667.797,742.990 659.251,734.995 659.251,734.995 C 649.682,726.042 646.814,725.096 642.455,729.455 C 638.075,733.835 639.027,736.113 650.126,747.820 C 663.241,761.653 663.657,761.995 667.361,762.028 C 670.153,762.053 673.072,759.425 693.750,738.278" stroke="#FFFFFF" fill="#FFFFFF" stroke-width="1" />
  <path id="11" d="M 440.603,542.250 C 447.692,511.848 469.415,489.842 497.673,484.435 C 524.029,479.392 550.822,488.947 567.958,509.500 C 574.586,517.449 583,536.436 583,543.443 C 583,544.838 575.554,545 511.481,545 C 511.481,545 439.962,545 439.962,545 C 439.962,545 440.603,542.250 440.603,542.250" stroke="#FFFFFF" fill="#FFFFFF" stroke-width="1" />
  <path id="10" d="M 662.237,760.250 C 661.145,759.287 655.695,753.694 650.126,747.820 C 639.027,736.113 638.075,733.835 642.455,729.455 C 646.814,725.096 649.682,726.042 659.251,734.995 C 659.251,734.995 667.797,742.990 667.797,742.990 C 667.797,742.990 686.994,723.032 686.994,723.032 C 697.552,712.055 707.081,702.791 708.169,702.446 C 713.151,700.865 719.037,706.962 717.614,712.231 C 717.277,713.479 706.538,725.200 693.750,738.278 C 673.072,759.425 670.153,762.053 667.361,762.028 C 665.634,762.013 663.329,761.213 662.237,760.250" stroke="#000000" fill="#000000" stroke-width="1" />
</svg>
